<svg width="480" height="2746" viewBox="0 0 480 2746" fill="none" xmlns="http://www.w3.org/2000/svg">
<g clip-path="url(#clip0_6827_36045)">
<rect y="-16" width="500.079" height="3466" fill="#080836"/>
</g>
<defs>
<clipPath id="clip0_6827_36045">
<rect width="480" height="2746" fill="white"/>
</clipPath>
</defs>
<g clip-path="url(#clip0_8776_21163)">
<rect width="3475" height="1751" transform="translate(-1119 -396)" fill="#080836"/>
<g opacity="0.5" filter="url(#filter0_f_8776_21163)">
<path d="M656.049 174.775C753.379 117.331 696.603 13.6565 656.049 -31C589.458 -31 453.549 -17.5033 442.646 36.4835C429.017 103.967 282.093 96.6535 310.68 167.129C339.267 237.604 427.686 203.031 376.828 299.104C325.969 395.176 612.504 402.822 612.504 347.306C612.504 291.79 534.388 246.58 656.049 174.775Z" fill="#FF505C"/>
</g>
<g opacity="0.5" filter="url(#filter1_f_8776_21163)">
<path d="M172.335 110.732L-52 269.697V-182.351L394.5 -192L258.451 -81.0384L172.335 110.732Z" fill="#0078FF"/>
</g>
<g style="mix-blend-mode:color" opacity="0.5">
<g>
<path d="M1060.57 639.721C894.003 686.524 1010.6 387.923 1089.72 232.771L1082.61 227.661L1434.51 -394.992C1516.53 -395.369 1700.45 -359.065 1779.94 -210.837C1879.29 -25.5519 1268.77 581.216 1060.57 639.721Z" fill="#14AAF6"/>
</g>
<path d="M1060.57 639.721C894.003 686.524 1010.6 387.923 1089.72 232.771L1082.61 227.661L1434.51 -394.992C1516.53 -395.369 1700.45 -359.065 1779.94 -210.837C1879.29 -25.5519 1268.77 581.216 1060.57 639.721Z" stroke="black"/>
</g>
<path fill-rule="evenodd" clip-rule="evenodd" d="M393 43.3296C393 92.0074 412.337 138.691 446.757 173.112C481.178 207.532 527.862 226.869 576.539 226.869V276.869C514.601 276.869 455.199 252.264 411.402 208.467C367.605 164.67 343 105.268 343 43.3296H393Z" fill="url(#paint0_linear_8776_21163)"/>
<path fill-rule="evenodd" clip-rule="evenodd" d="M494.108 -11.9328C503.332 -34.2009 508.079 -58.0676 508.079 -82.1704H558.079C558.079 -51.5015 552.038 -21.133 540.302 7.20139C528.566 35.5357 511.363 61.2809 489.677 82.9671C467.991 104.653 442.246 121.856 413.911 133.592C385.577 145.329 355.208 151.369 324.539 151.369V101.369C348.642 101.369 372.509 96.6219 394.777 87.3982C417.045 78.1745 437.278 64.655 454.322 47.6118C471.365 30.5685 484.884 10.3353 494.108 -11.9328Z" fill="url(#paint1_linear_8776_21163)"/>
<path d="M349.882 99.6114C365.271 97.466 380.359 93.3704 394.777 87.3983C395.867 86.9469 396.952 86.4853 398.031 86.0134C401.931 102.32 408.045 118.007 416.191 132.634C415.433 132.957 414.673 133.277 413.911 133.592C398.913 139.805 383.345 144.421 367.465 147.391C359.889 132.169 353.989 116.147 349.882 99.6114Z" fill="url(#paint2_linear_8776_21163)"/>
<path fill-rule="evenodd" clip-rule="evenodd" d="M152.925 148.04C128.822 148.04 104.955 152.787 82.6872 162.011C60.4191 171.235 40.1858 184.754 23.1425 201.797C6.09918 218.84 -7.4203 239.074 -16.6441 261.342C-25.8678 283.61 -30.6152 307.477 -30.6152 331.58H-80.6152C-80.6152 300.911 -74.5745 270.542 -62.838 242.208C-51.1015 213.873 -33.8991 188.128 -12.2128 166.442C9.4734 144.756 35.2187 127.553 63.5531 115.817C91.8875 104.08 122.256 98.0397 152.925 98.0398L152.925 148.04Z" fill="url(#paint3_linear_8776_21163)"/>
<path fill-rule="evenodd" clip-rule="evenodd" d="M-68.3058 41.0398C-43.8815 41.0397 -19.7061 45.8101 2.83624 55.0681C25.3778 64.3258 45.832 77.8839 63.0419 94.9476C80.2509 112.01 93.879 132.244 103.169 154.481C112.459 176.718 117.234 200.536 117.234 224.58H167.234C167.234 193.911 161.142 163.542 149.305 135.208C137.468 106.873 120.118 81.128 98.2462 59.4418C76.3742 37.7556 50.4085 20.5532 21.8314 8.81679C-6.74565 -2.91965 -37.3744 -8.96028 -68.3059 -8.96021L-68.3058 41.0398Z" fill="url(#paint4_linear_8776_21163)"/>
<g style="mix-blend-mode:overlay">
<path d="M130.368 99.1316C112.257 100.889 94.4035 104.758 77.174 110.666C87.8353 123.99 96.59 138.733 103.169 154.481C103.223 154.61 103.276 154.739 103.33 154.867C119.439 150.346 136.125 148.04 152.925 148.04L152.925 144.42C151.785 141.327 150.578 138.255 149.305 135.208C144.05 122.629 137.709 110.561 130.368 99.1316Z" fill="url(#paint5_linear_8776_21163)"/>
</g>
<g style="mix-blend-mode:soft-light" opacity="0.2">
<circle cx="392.664" cy="392.664" r="392.142" transform="matrix(-1 0 0 1 1086.57 18.5107)" stroke="#150E1F" stroke-width="1.04267"/>
<path d="M-1073.92 966.894H-182.936C-114.018 966.894 -58.149 911.025 -58.149 842.106V193.213C-58.149 27.8093 75.937 -106.277 241.34 -106.277C406.744 -106.277 540.83 27.8093 540.83 193.213V441.123C540.83 510.042 596.699 565.911 665.617 565.911H2324.46" stroke="#150E1F" stroke-width="1.66383"/>
<path d="M-1103.03 1008.49H-182.936C-91.0452 1008.49 -16.553 933.997 -16.553 842.106V193.213C-16.553 50.782 98.9099 -64.6809 241.341 -64.6809C383.771 -64.6809 499.234 50.782 499.234 193.213V441.123C499.234 533.014 573.726 607.506 665.617 607.506H2322.79" stroke="#150E1F" stroke-width="1.66383"/>
<path d="M-1098.04 1050.09H-182.936C-68.0727 1050.09 25.0426 956.97 25.0426 842.107V193.213C25.0426 73.7549 121.882 -23.085 241.34 -23.085C360.798 -23.085 457.638 73.7549 457.638 193.213V441.124C457.638 555.987 550.754 649.102 665.617 649.102H2355.24" stroke="#150E1F" stroke-width="1.66383"/>
<path d="M-1118.01 1091.68H-182.936C-45.0999 1091.68 66.6384 979.943 66.6384 842.107V193.213C66.6384 96.7275 144.855 18.5107 241.341 18.5107C337.826 18.5107 416.043 96.7275 416.043 193.213V441.124C416.043 578.96 527.781 690.698 665.617 690.698H2328.61" stroke="#150E1F" stroke-width="1.66383"/>
<path d="M-1099.71 1133.28H-174.617C-18.4027 1133.28 108.234 1006.64 108.234 850.426V193.213C108.234 119.7 167.828 60.1064 241.34 60.1064C314.853 60.1064 374.447 119.7 374.447 193.213V441.123C374.447 601.932 504.808 732.294 665.617 732.294H2338.6" stroke="#150E1F" stroke-width="1.66383"/>
</g>
</g>
<defs>
<filter id="filter0_f_8776_21163" x="153.848" y="-184.152" width="709.094" height="719.304" filterUnits="userSpaceOnUse" color-interpolation-filters="sRGB">
<feFlood flood-opacity="0" result="BackgroundImageFix"/>
<feBlend mode="normal" in="SourceGraphic" in2="BackgroundImageFix" result="shape"/>
<feGaussianBlur stdDeviation="76.576" result="effect1_foregroundBlur_8776_21163"/>
</filter>
<filter id="filter1_f_8776_21163" x="-196.733" y="-336.733" width="735.965" height="751.162" filterUnits="userSpaceOnUse" color-interpolation-filters="sRGB">
<feFlood flood-opacity="0" result="BackgroundImageFix"/>
<feBlend mode="normal" in="SourceGraphic" in2="BackgroundImageFix" result="shape"/>
<feGaussianBlur stdDeviation="72.3663" result="effect1_foregroundBlur_8776_21163"/>
</filter>
<linearGradient id="paint0_linear_8776_21163" x1="670.27" y1="306.81" x2="685.69" y2="-46.353" gradientUnits="userSpaceOnUse">
<stop stop-color="#891D4B"/>
<stop offset="1" stop-color="#F45E79" stop-opacity="0.18"/>
</linearGradient>
<linearGradient id="paint1_linear_8776_21163" x1="418.27" y1="181.31" x2="437.27" y2="-141.94" gradientUnits="userSpaceOnUse">
<stop stop-color="#97446E"/>
<stop offset="1" stop-color="#9F3A5A" stop-opacity="0.07"/>
</linearGradient>
<linearGradient id="paint2_linear_8776_21163" x1="428.632" y1="258.407" x2="447.182" y2="-2.18464" gradientUnits="userSpaceOnUse">
<stop stop-color="#F45C79"/>
<stop offset="1" stop-color="#F45E79" stop-opacity="0.18"/>
</linearGradient>
<linearGradient id="paint3_linear_8776_21163" x1="192.905" y1="88.2898" x2="-44.3452" y2="336.54" gradientUnits="userSpaceOnUse">
<stop stop-color="#FF93B9" stop-opacity="0.53"/>
<stop offset="1" stop-color="#80DCDA" stop-opacity="0"/>
</linearGradient>
<linearGradient id="paint4_linear_8776_21163" x1="-74.0847" y1="-56.4602" x2="138.061" y2="225.716" gradientUnits="userSpaceOnUse">
<stop stop-color="#0960CC"/>
<stop offset="1" stop-color="#0960D0" stop-opacity="0"/>
</linearGradient>
<linearGradient id="paint5_linear_8776_21163" x1="-74.0847" y1="-56.4602" x2="68.9608" y2="352.056" gradientUnits="userSpaceOnUse">
<stop stop-color="#EFE4E6"/>
<stop offset="1" stop-color="#F6643C" stop-opacity="0"/>
</linearGradient>
<clipPath id="clip0_8776_21163">
<rect width="480" height="2746" fill="white"/>
</clipPath>
</defs>
</svg>
